<svg width="38" height="36" viewBox="0 0 38 36" fill="none" xmlns="http://www.w3.org/2000/svg">
<path d="M10.9524 30C7.85564 30 5.28445 29.2394 3.23885 27.7183C1.19326 26.1972 0.113644 23.9718 0 21.0422C0 20.7887 0.0852331 20.5775 0.255699 20.4084C0.426165 20.2113 0.653453 20.1127 0.937563 20.1127H3.23885C3.83549 20.1127 4.20483 20.4366 4.34688 21.0845C4.51735 22.8873 5.21342 24.2253 6.43509 25.0986C7.65677 25.9718 9.19096 26.4084 11.0377 26.4084C13.1685 26.4084 14.8021 25.7183 15.9386 24.338C17.1034 22.9296 17.6859 21.0423 17.6859 18.6761V3.67606H2.55699C2.27288 3.67606 2.03139 3.59155 1.83251 3.42253C1.66204 3.22535 1.57681 2.98592 1.57681 2.70423V0.971831C1.57681 0.690141 1.66204 0.46479 1.83251 0.295776C2.03139 0.0985925 2.27288 0 2.55699 0H20.9247C21.2372 0 21.4787 0.0985925 21.6492 0.295776C21.8481 0.46479 21.9475 0.704225 21.9475 1.01408V18.7606C21.9475 22.1972 20.9673 24.9296 19.007 26.9577C17.075 28.9859 14.3902 30 10.9524 30Z" fill="#F0F4F8"/>
<path d="M18.666 35.0772C18.3819 35.0772 18.1404 34.9927 17.9416 34.8237C17.7711 34.6265 17.6859 34.3871 17.6859 34.1054V6.51384C17.6859 6.20398 17.7711 5.96455 17.9416 5.79553C18.1404 5.59835 18.3819 5.49976 18.666 5.49976H36.2667C36.5508 5.49976 36.778 5.59835 36.9485 5.79553C37.1474 5.96455 37.2468 6.20398 37.2468 6.51384V8.11948C37.2468 8.40117 37.1616 8.6406 36.9911 8.83778C36.8207 9.0068 36.5792 9.09131 36.2667 9.09131H21.777V18.3448H35.3291C35.6132 18.3448 35.8405 18.4434 36.011 18.6406C36.2098 18.8096 36.3093 19.049 36.3093 19.3589V20.9223C36.3093 21.204 36.2098 21.4434 36.011 21.6406C35.8405 21.8096 35.6132 21.8941 35.3291 21.8941H21.777V31.4857H36.6076C36.9201 31.4857 37.1616 31.5702 37.3321 31.7392C37.5025 31.9082 37.5878 32.1476 37.5878 32.4575V34.1054C37.5878 34.3871 37.4883 34.6265 37.2894 34.8237C37.119 34.9927 36.8917 35.0772 36.6076 35.0772H18.666Z" fill="#F0F4F8"/>
</svg>
