<?xml version="1.0" standalone="no"?>
<!DOCTYPE svg PUBLIC "-//W3C//DTD SVG 20010904//EN"
 "http://www.w3.org/TR/2001/REC-SVG-20010904/DTD/svg10.dtd">
<svg version="1.0" xmlns="http://www.w3.org/2000/svg"
 width="300.000000pt" height="300.000000pt" viewBox="0 0 300.000000 300.000000"
 preserveAspectRatio="xMidYMid meet">
<metadata>
Created by potrace 1.11, written by Peter Selinger 2001-2013
</metadata>
<g transform="translate(0.000000,300.000000) scale(0.100000,-0.100000)"
fill="#000000" stroke="none">
<path d="M185 2980 c-59 -23 -126 -83 -157 -143 l-23 -42 -3 -1277 c-2 -1257
-2 -1277 18 -1330 23 -62 82 -128 143 -160 l42 -23 1277 -3 c1257 -2 1277 -2
1330 18 62 23 128 82 160 143 l23 42 3 1277 c2 1257 2 1277 -18 1330 -23 62
-82 128 -143 160 l-42 23 -1280 2 c-1247 2 -1281 2 -1330 -17z m1463 -506 c21
-14 22 -22 22 -155 l0 -139 410 0 c397 0 411 -1 430 -20 15 -15 20 -33 20 -76
0 -102 39 -94 -440 -94 l-420 0 0 -265 0 -265 388 0 c288 0 391 -3 400 -12 7
-7 12 -41 12 -85 0 -61 -3 -74 -19 -83 -13 -6 -159 -10 -405 -10 l-386 0 0
-270 0 -270 423 0 c350 0 427 -2 443 -14 16 -12 19 -27 19 -85 0 -44 -5 -75
-13 -83 -10 -10 -121 -13 -538 -13 -509 0 -526 1 -540 19 -11 15 -14 59 -14
194 0 95 -3 172 -7 170 -171 -86 -239 -102 -408 -95 -66 3 -147 13 -180 22
-134 36 -266 127 -320 219 -54 92 -84 233 -59 274 13 20 22 22 104 22 81 0 90
-2 104 -22 9 -12 16 -33 16 -45 0 -40 42 -135 76 -172 67 -75 204 -118 339
-108 165 12 275 110 320 284 12 47 15 143 15 525 l0 468 -434 0 c-382 0 -436
2 -450 16 -11 11 -16 34 -16 78 0 62 11 89 40 99 8 3 247 6 530 6 451 1 518
-1 538 -15z"/>
</g>
</svg>
